<?xml version="1.0" standalone="no"?>
<!DOCTYPE svg PUBLIC "-//W3C//DTD SVG 20010904//EN"
 "http://www.w3.org/TR/2001/REC-SVG-20010904/DTD/svg10.dtd">
<svg version="1.0" xmlns="http://www.w3.org/2000/svg"
 width="1081.000000pt" height="1024.000000pt" viewBox="0 0 1081.000000 1024.000000"
 preserveAspectRatio="xMidYMid meet">

<g transform="translate(0.000000,1024.000000) scale(0.100000,-0.100000)"
fill="#000000" stroke="none">
<path d="M10235 9869 c-308 -166 -607 -333 -665 -371 -678 -456 -1971 -1650
-3341 -3088 -268 -281 -439 -467 -1684 -1830 -1610 -1763 -1747 -1911 -1750
-1908 -2 2 -137 424 -300 938 -163 514 -326 1027 -361 1139 l-66 203 -446 -5
c-479 -5 -547 -11 -759 -63 -147 -36 -260 -77 -378 -137 -95 -48 -110 -60
-292 -241 l-193 -191 481 -885 c770 -1418 865 -1591 1012 -1850 353 -616 697
-1156 937 -1469 l85 -111 206 0 206 0 80 92 c358 417 931 1228 1507 2133 825
1296 2117 3028 3446 4620 316 379 609 714 2622 2998 202 229 228 263 228 293
0 19 -3 34 -7 34 -5 -1 -260 -136 -568 -301z"/>
</g>
</svg>
