<?xml version="1.0" standalone="no"?>
<!DOCTYPE svg PUBLIC "-//W3C//DTD SVG 20010904//EN"
 "http://www.w3.org/TR/2001/REC-SVG-20010904/DTD/svg10.dtd">
<svg version="1.0" xmlns="http://www.w3.org/2000/svg"
 width="400.000000pt" height="400.000000pt" viewBox="0 0 400.000000 400.000000"
 preserveAspectRatio="xMidYMid meet">

<g transform="translate(0.000000,400.000000) scale(0.100000,-0.100000)"
fill="#000000" stroke="none">
<path d="M215 3778 c-3 -7 -4 -812 -3 -1788 l3 -1775 1788 -3 1787 -2 0 1790
0 1790 -1785 0 c-1419 0 -1787 -3 -1790 -12z m1022 -369 c77 -37 113 -116 113
-251 l0 -78 -74 0 -74 0 -3 86 c-4 76 -7 88 -28 105 -33 27 -86 25 -117 -6
l-25 -25 3 -336 c3 -322 4 -336 23 -350 48 -35 113 -24 134 22 6 14 11 65 11
114 l0 90 75 0 75 0 0 -96 c0 -118 -13 -171 -53 -219 -43 -53 -96 -75 -185
-75 -111 0 -171 32 -215 115 -21 39 -22 50 -22 405 0 362 0 365 23 412 13 27
38 58 55 70 71 51 198 58 284 17z m573 -2 c30 -16 55 -39 75 -72 l30 -48 3
-351 c3 -384 1 -409 -51 -471 -44 -54 -96 -75 -188 -75 -65 0 -85 4 -130 28
-45 24 -59 37 -84 87 l-30 59 -3 312 c-2 192 1 335 7 371 18 97 81 165 170
184 58 13 152 1 201 -24z m596 -5 c23 -12 53 -35 67 -51 49 -59 52 -82 52
-431 0 -368 -4 -399 -65 -460 -51 -51 -93 -60 -274 -60 l-156 0 0 508 c0 280
3 512 8 516 4 5 79 6 167 4 138 -4 166 -8 201 -26z m662 -49 l3 -73 -141 0
-140 0 0 -145 0 -145 115 0 115 0 0 -70 0 -69 -112 -3 -113 -3 0 -150 0 -150
138 -3 137 -3 0 -69 0 -70 -220 0 -220 0 0 508 c0 280 3 512 7 516 4 3 102 5
217 4 l211 -3 3 -72z m-1268 -1198 c0 -34 -1 -35 -40 -35 l-40 0 0 -220 0
-220 -40 0 -40 0 0 220 0 220 -40 0 c-39 0 -40 1 -40 35 l0 35 120 0 120 0 0
-35z m122 -72 l3 -108 45 0 45 0 3 108 3 107 40 0 39 0 -2 -252 -3 -253 -37
-3 -38 -3 0 110 0 111 -50 0 -50 0 0 -111 0 -110 -37 3 -38 3 -2 253 -3 252
40 0 39 0 3 -107z m456 75 l-3 -33 -67 -3 -68 -3 0 -69 0 -69 53 -3 c51 -3 52
-4 55 -35 l3 -33 -55 0 -56 0 0 -80 0 -80 71 0 70 0 -3 -32 -3 -33 -107 -3
-108 -3 0 256 0 255 111 0 110 0 -3 -32z m-1523 -674 c25 -13 51 -39 70 -69
l30 -48 0 -367 0 -367 -30 -48 c-50 -80 -79 -89 -282 -93 l-173 -3 0 511 0
511 173 -3 c151 -3 177 -6 212 -24z m557 16 c98 -28 133 -100 133 -270 -1
-127 -17 -176 -71 -219 l-27 -21 27 -21 c51 -40 68 -92 73 -219 2 -63 5 -148
7 -187 l3 -73 -78 0 c-95 0 -88 -15 -91 197 -4 180 -13 202 -92 217 -79 14
-76 23 -76 -209 l0 -205 -80 0 -80 0 0 510 0 510 158 0 c86 0 174 -5 194 -10z
m688 -60 l0 -70 -140 0 -140 0 0 -145 0 -145 110 0 110 0 0 -75 0 -75 -110 0
-110 0 0 -150 0 -150 140 0 140 0 0 -70 0 -70 -220 0 -220 0 0 510 0 510 220
0 220 0 0 -70z m489 -142 c82 -519 121 -765 126 -786 5 -21 3 -22 -78 -22
l-83 0 -13 90 -13 90 -98 0 c-111 0 -104 6 -115 -90 -11 -93 -8 -90 -87 -90
l-71 0 7 53 c9 64 144 913 151 945 5 21 9 22 123 22 l117 0 34 -212z m487
-145 c32 -196 60 -351 62 -345 2 7 27 166 56 355 l52 342 112 3 112 3 0 -511
0 -510 -75 0 -75 0 0 352 c0 193 -2 349 -4 347 -4 -4 -106 -668 -106 -690 0
-5 -35 -9 -79 -9 l-78 0 -53 328 c-28 180 -55 334 -59 342 -3 8 -7 -139 -9
-327 l-2 -343 -70 0 -70 0 0 510 0 510 114 0 113 0 59 -357z"/>
<path d="M1621 3271 c-29 -29 -33 -78 -29 -399 l3 -294 28 -24 c37 -31 81 -31
112 1 l25 24 0 329 c0 318 -1 330 -21 356 -26 33 -88 37 -118 7z"/>
<path d="M2190 2909 l0 -371 65 4 c51 3 70 9 88 26 22 22 22 25 22 341 l0 319
-24 26 c-21 23 -33 26 -88 26 l-63 0 0 -371z"/>
<path d="M630 1000 l0 -370 60 0 c51 0 65 4 85 25 l25 24 0 321 0 321 -25 24
c-20 21 -34 25 -85 25 l-60 0 0 -370z"/>
<path d="M1227 1363 c-4 -3 -7 -75 -7 -160 l0 -153 55 0 c45 0 60 4 80 24 28
29 40 92 32 184 -7 84 -33 112 -106 112 -26 0 -51 -3 -54 -7z"/>
<path d="M2391 1088 c-18 -123 -35 -235 -38 -250 l-5 -28 76 0 c74 0 76 1 76
25 0 36 -59 437 -68 458 -4 10 -21 -74 -41 -205z"/>
</g>
</svg>
